# xmcd
#
# Track frame offsets: 
#        150
#        11882
#        35969
#        50982
#        81946
#        107326
#        132810
#        146974
#        171537
#        198404
#        223711
#        238635
#        258733
#        290433
#        312923
#        329268
#        342002
#
# Disc length: 4780 seconds
#
# Revision: 0
# Processed by: cddbd v1.5.2PL0 Copyright (c) Steve Scherf et al.
# Submitted via: ExactAudioCopy v1.3
#
DISCID=1212aa11
DTITLE=Various Artist - Akella Presents - vol. 178 - Blues Instrument
DTITLE=al  CD2
DYEAR=2019
DGENRE=Blues
TTITLE0=Dickie Peltier - Tornado Warnin'
TTITLE1=Peder Af Ugglas - Wino's Dance
TTITLE2=Melvin Taylor - Steppers 1
TTITLE3=Blues Company - Waiting for Springtime
TTITLE4=Lucky Peterson - Nana Jarnell
TTITLE5=Snowy White - The Water's Edge
TTITLE6=Wilko Johnson - Lament
TTITLE7=Tino Gonsales - Weeping for Nicki
TTITLE8=Leo Maier - We Miss the King
TTITLE9=Ronnie Earl - Mother Angel
TTITLE10=Jeremy Spencer - Happy Troubadour
TTITLE11=Jimmy Carpenter - Change Is Gonna Come
TTITLE12=Kees Dusink - Loads To Say
TTITLE13=Coyote Kings - Song For Shaman
TTITLE14=Arlen Roth - Paradise Blues
TTITLE15=Dave Sadler - People Get Ready
TTITLE16=Frank Frost - Deep Blues
EXTD=
EXTT0=
EXTT1=
EXTT2=
EXTT3=
EXTT4=
EXTT5=
EXTT6=
EXTT7=
EXTT8=
EXTT9=
EXTT10=
EXTT11=
EXTT12=
EXTT13=
EXTT14=
EXTT15=
EXTT16=
PLAYORDER=
